<svg width="131" height="24" viewBox="0 0 131 24" fill="none" xmlns="http://www.w3.org/2000/svg">
<g clip-path="url(#clip0_4354_14711)">
<path d="M1.90193 17.5218C1.27193 17.2038 0.79793 16.7448 0.47993 16.1448C0.16193 15.5448 0.00292969 14.8248 0.00292969 13.9848V13.7148H2.79293C2.79293 14.3508 2.90393 14.8128 3.12593 15.1008C3.34793 15.3888 3.70493 15.5328 4.19693 15.5328C4.54493 15.5328 4.81493 15.4608 5.00693 15.3168C5.19893 15.1728 5.33393 14.9628 5.41193 14.6868C5.48993 14.4108 5.52893 14.0508 5.52893 13.6068V5.2728H8.62493V13.6068C8.62493 14.5668 8.46893 15.3738 8.15693 16.0278C7.84493 16.6818 7.36493 17.1738 6.71693 17.5038C6.06893 17.8338 5.24093 17.9988 4.23293 17.9988C3.30893 17.9988 2.53193 17.8398 1.90193 17.5218Z" fill="#141414"/>
<path d="M10.7669 6.9918C10.5269 6.8538 10.3379 6.6738 10.1999 6.4518C10.0619 6.2298 9.99293 5.9688 9.99293 5.6688C9.99293 5.3688 10.0619 5.1108 10.1999 4.8948C10.3379 4.6788 10.5299 4.5048 10.7759 4.3728C11.0219 4.2408 11.3129 4.1748 11.6489 4.1748C11.9609 4.1748 12.2399 4.2408 12.4859 4.3728C12.7319 4.5048 12.9209 4.6818 13.0529 4.9038C13.1849 5.1258 13.2509 5.3868 13.2509 5.6868C13.2509 5.9868 13.1879 6.2328 13.0619 6.4608C12.9359 6.6888 12.7469 6.8688 12.4949 7.0008C12.2429 7.1328 11.9549 7.1988 11.6309 7.1988C11.3069 7.1988 11.0069 7.1298 10.7669 6.9918ZM10.2269 8.31481H13.0349V17.7108H10.2269V8.31481Z" fill="#141414"/>
<path d="M16.4909 17.3418C15.7589 16.9278 15.2009 16.3488 14.8169 15.6048C14.4329 14.8608 14.2409 13.9968 14.2409 13.0128C14.2409 12.0288 14.4329 11.1798 14.8169 10.4298C15.2009 9.6798 15.7589 9.1008 16.4909 8.6928C17.2229 8.2848 18.0749 8.0808 19.0469 8.0808C20.0189 8.0808 20.8889 8.2908 21.6209 8.7108C22.3529 9.1308 22.9109 9.7098 23.2949 10.4478C23.6789 11.1858 23.8709 12.0408 23.8709 13.0128C23.8709 13.9848 23.6759 14.8758 23.2859 15.6138C22.8959 16.3518 22.3409 16.9278 21.6209 17.3418C20.9009 17.7558 20.0489 17.9628 19.0649 17.9628C18.0809 17.9628 17.2229 17.7558 16.4909 17.3418ZM20.1449 15.5148C20.4449 15.2868 20.6699 14.9658 20.8199 14.5518C20.9699 14.1378 21.0449 13.6308 21.0449 13.0308C21.0449 12.4308 20.9729 11.9538 20.8289 11.5278C20.6849 11.1018 20.4659 10.7688 20.1719 10.5288C19.8779 10.2888 19.5029 10.1688 19.0469 10.1688C18.6389 10.1688 18.2849 10.2798 17.9849 10.5018C17.6849 10.7238 17.4569 11.0478 17.3009 11.4738C17.1449 11.8998 17.0669 12.4188 17.0669 13.0308C17.0669 13.6428 17.1449 14.1228 17.3009 14.5428C17.4569 14.9628 17.6849 15.2868 17.9849 15.5148C18.2849 15.7428 18.6449 15.8568 19.0649 15.8568C19.4849 15.8568 19.8449 15.7428 20.1449 15.5148Z" fill="#141414"/>
<path d="M25.0589 5.2728H30.9809C31.8929 5.2728 32.6879 5.4408 33.3659 5.7768C34.0439 6.1128 34.5599 6.5898 34.9139 7.2078C35.2679 7.8258 35.4449 8.5308 35.4449 9.3228C35.4449 10.1988 35.2649 10.9488 34.9049 11.5728C34.5449 12.1968 34.0229 12.6738 33.3389 13.0038C32.6549 13.3338 31.8329 13.4988 30.8729 13.4988H28.1549V17.7108H25.0589V5.2728ZM31.5119 10.9788C31.8299 10.8468 32.0639 10.6518 32.2139 10.3938C32.3639 10.1358 32.4389 9.8148 32.4389 9.4308C32.4389 9.0468 32.3669 8.7468 32.2229 8.4948C32.0789 8.2428 31.8539 8.0478 31.5479 7.9098C31.2419 7.7718 30.8489 7.7028 30.3689 7.7028H28.1549V11.1768H30.2969C30.7889 11.1768 31.1939 11.1108 31.5119 10.9788Z" fill="#141414"/>
<path d="M36.4529 4.8588H39.2609V9.5568H39.3329C39.6329 9.0648 40.0199 8.6958 40.4939 8.4498C40.9679 8.2038 41.5169 8.0808 42.1409 8.0808C42.8489 8.0808 43.4399 8.21581 43.9139 8.48581C44.3879 8.75581 44.7479 9.1518 44.9939 9.6738C45.2399 10.1958 45.3629 10.8408 45.3629 11.6088V17.7108H42.5549V12.3648C42.5549 11.6448 42.4259 11.1138 42.1679 10.7718C41.9099 10.4298 41.5109 10.2588 40.9709 10.2588C40.4309 10.2588 39.9809 10.4298 39.6929 10.7718C39.4049 11.1138 39.2609 11.6508 39.2609 12.3828V17.7108H36.4529V4.8588Z" fill="#141414"/>
<path d="M48.6019 17.3418C47.8699 16.9278 47.3119 16.3488 46.9279 15.6048C46.5439 14.8608 46.3519 13.9968 46.3519 13.0128C46.3519 12.0288 46.5439 11.1798 46.9279 10.4298C47.3119 9.6798 47.8699 9.1008 48.6019 8.6928C49.3339 8.2848 50.1859 8.0808 51.1579 8.0808C52.1299 8.0808 52.9999 8.2908 53.7319 8.7108C54.4639 9.1308 55.0219 9.7098 55.4059 10.4478C55.7899 11.1858 55.9819 12.0408 55.9819 13.0128C55.9819 13.9848 55.7869 14.8758 55.3969 15.6138C55.0069 16.3518 54.4519 16.9278 53.7319 17.3418C53.0119 17.7558 52.1599 17.9628 51.1759 17.9628C50.1919 17.9628 49.3339 17.7558 48.6019 17.3418ZM52.2559 15.5148C52.5559 15.2868 52.7809 14.9658 52.9309 14.5518C53.0809 14.1378 53.1559 13.6308 53.1559 13.0308C53.1559 12.4308 53.0839 11.9538 52.9399 11.5278C52.7959 11.1018 52.5769 10.7688 52.2829 10.5288C51.9889 10.2888 51.6139 10.1688 51.1579 10.1688C50.7499 10.1688 50.3959 10.2798 50.0959 10.5018C49.7959 10.7238 49.5679 11.0478 49.4119 11.4738C49.2559 11.8998 49.1779 12.4188 49.1779 13.0308C49.1779 13.6428 49.2559 14.1228 49.4119 14.5428C49.5679 14.9628 49.7959 15.2868 50.0959 15.5148C50.3959 15.7428 50.7559 15.8568 51.1759 15.8568C51.5959 15.8568 51.9559 15.7428 52.2559 15.5148Z" fill="#141414"/>
<path d="M57.1519 8.3148H59.8159L59.8699 9.5928H59.9599C60.2479 9.1008 60.6349 8.7258 61.1209 8.4678C61.6069 8.2098 62.1739 8.0808 62.8219 8.0808C63.5179 8.0808 64.1059 8.2158 64.5859 8.4858C65.0659 8.7558 65.4319 9.1518 65.6839 9.6738C65.9359 10.1958 66.0619 10.8408 66.0619 11.6088V17.7108H63.2539V12.3648C63.2539 11.6568 63.1219 11.1288 62.8579 10.7808C62.5939 10.4328 62.1919 10.2588 61.6519 10.2588C61.1119 10.2588 60.6649 10.4298 60.3829 10.7718C60.1009 11.1138 59.9599 11.6508 59.9599 12.3828V17.7108H57.1519V8.3148Z" fill="#141414"/>
<path d="M69.3289 17.3688C68.6089 16.9728 68.0479 16.4058 67.6459 15.6678C67.2439 14.9298 67.0429 14.0508 67.0429 13.0308C67.0429 12.0948 67.2409 11.2488 67.6369 10.4928C68.0329 9.7368 68.5909 9.1458 69.3109 8.7198C70.0309 8.2938 70.8649 8.0808 71.8129 8.0808C72.8329 8.0808 73.6939 8.2938 74.3959 8.7198C75.0979 9.1458 75.6289 9.7578 75.9889 10.5558C76.3489 11.3538 76.5289 12.2868 76.5289 13.3548V13.6968H69.2569V12.0408H73.8109C73.7869 11.6328 73.6939 11.2758 73.5319 10.9698C73.3699 10.6638 73.1449 10.4298 72.8569 10.2678C72.5689 10.1058 72.2329 10.0248 71.8489 10.0248C71.4649 10.0248 71.1259 10.1028 70.8319 10.2588C70.5379 10.4148 70.3009 10.6428 70.1209 10.9428C69.9409 11.2428 69.8269 11.6028 69.7789 12.0228V13.6608C69.8029 14.1648 69.8989 14.5878 70.0669 14.9298C70.2349 15.2718 70.4809 15.5388 70.8049 15.7308C71.1289 15.9228 71.5309 16.0188 72.0109 16.0188C72.4909 16.0188 72.8479 15.9348 73.1539 15.7668C73.4599 15.5988 73.6729 15.3708 73.7929 15.0828H76.3489C76.0609 16.0068 75.5329 16.7178 74.7649 17.2158C73.9969 17.7138 73.0309 17.9628 71.8669 17.9628C70.8949 17.9628 70.0489 17.7648 69.3289 17.3688Z" fill="#141414"/>
<path d="M82.5049 5.2728H88.4269C89.3389 5.2728 90.1339 5.4408 90.8119 5.7768C91.4899 6.1128 92.0059 6.5898 92.3599 7.2078C92.7139 7.8258 92.8909 8.5308 92.8909 9.3228C92.8909 10.1988 92.7109 10.9488 92.3509 11.5728C91.9909 12.1968 91.4689 12.6738 90.7849 13.0038C90.1009 13.3338 89.2789 13.4988 88.3189 13.4988H85.6009V17.7108H82.5049V5.2728ZM88.9579 10.9788C89.2759 10.8468 89.5099 10.6518 89.6599 10.3938C89.8099 10.1358 89.8849 9.8148 89.8849 9.4308C89.8849 9.0468 89.8129 8.7468 89.6689 8.4948C89.5249 8.2428 89.2999 8.0478 88.9939 7.9098C88.6879 7.7718 88.2949 7.7028 87.8149 7.7028H85.6009V11.1768H87.7429C88.2349 11.1768 88.6399 11.1108 88.9579 10.9788Z" fill="#141414"/>
<path d="M93.8619 8.3148H96.4899L96.5439 9.9168H96.6339C96.8379 9.3288 97.1649 8.8758 97.6149 8.5578C98.0649 8.2398 98.5899 8.0808 99.1899 8.0808C99.5019 8.0808 99.7659 8.1108 99.9819 8.1708V10.6728C99.8859 10.6368 99.7689 10.6098 99.6309 10.5918C99.4929 10.5738 99.3339 10.5648 99.1539 10.5648C98.5779 10.5648 98.1069 10.6848 97.7409 10.9248C97.3749 11.1648 97.1019 11.5008 96.9219 11.9328C96.7419 12.3648 96.6519 12.8808 96.6519 13.4808V17.7108H93.8619V8.3148Z" fill="#141414"/>
<path d="M101.53 6.9918C101.29 6.8538 101.101 6.6738 100.963 6.4518C100.825 6.2298 100.756 5.9688 100.756 5.6688C100.756 5.3688 100.825 5.1108 100.963 4.8948C101.101 4.6788 101.293 4.5048 101.539 4.3728C101.785 4.2408 102.076 4.1748 102.412 4.1748C102.724 4.1748 103.003 4.2408 103.249 4.3728C103.495 4.5048 103.684 4.6818 103.816 4.9038C103.948 5.1258 104.014 5.3868 104.014 5.6868C104.014 5.9868 103.951 6.2328 103.825 6.4608C103.699 6.6888 103.51 6.8688 103.258 7.0008C103.006 7.1328 102.718 7.1988 102.394 7.1988C102.07 7.1988 101.77 7.1298 101.53 6.9918ZM100.99 8.31481H103.798V17.7108H100.99V8.31481Z" fill="#141414"/>
<path d="M105.382 8.3148H108.01L108.064 9.6108H108.154C108.466 9.1068 108.853 8.7258 109.315 8.4678C109.777 8.2098 110.32 8.0808 110.944 8.0808C111.568 8.0808 112.123 8.2128 112.573 8.4768C113.023 8.7408 113.35 9.1248 113.554 9.6288H113.626C113.974 9.1008 114.391 8.7108 114.877 8.4588C115.363 8.2068 115.93 8.0808 116.578 8.0808C117.226 8.0808 117.823 8.2128 118.297 8.4768C118.771 8.7408 119.131 9.1218 119.377 9.6198C119.623 10.1178 119.746 10.7208 119.746 11.4288V17.7108H116.92V12.3108C116.92 11.6148 116.806 11.0988 116.578 10.7628C116.35 10.4268 115.99 10.2588 115.498 10.2588C115.174 10.2588 114.898 10.3308 114.67 10.4748C114.442 10.6188 114.271 10.8468 114.157 11.1588C114.043 11.4708 113.986 11.8548 113.986 12.3108V17.7108H111.16V12.3108C111.16 11.6268 111.046 11.1138 110.818 10.7718C110.59 10.4298 110.224 10.2588 109.72 10.2588C109.216 10.2588 108.835 10.4268 108.577 10.7628C108.319 11.0988 108.19 11.6148 108.19 12.3108V17.7108H105.382V8.3148Z" fill="#141414"/>
<path d="M122.869 17.6118C122.383 17.3778 122.008 17.0388 121.744 16.5948C121.48 16.1508 121.348 15.6228 121.348 15.0108C121.348 14.3148 121.528 13.7478 121.888 13.3098C122.248 12.8718 122.773 12.5418 123.463 12.3198C124.153 12.0978 124.996 11.9868 125.992 11.9868H127.504V11.5548C127.504 11.1708 127.456 10.8528 127.36 10.6008C127.264 10.3488 127.102 10.1598 126.874 10.0338C126.646 9.9078 126.34 9.8448 125.956 9.8448C125.488 9.8448 125.131 9.9288 124.885 10.0968C124.639 10.2648 124.48 10.5048 124.408 10.8168H121.726C121.822 10.2288 122.035 9.7278 122.365 9.3138C122.695 8.8998 123.163 8.5878 123.769 8.3778C124.375 8.1678 125.14 8.0628 126.064 8.0628C126.988 8.0628 127.813 8.1978 128.431 8.4678C129.049 8.7378 129.502 9.1488 129.79 9.7008C130.078 10.2528 130.222 10.9488 130.222 11.7888V17.7108H127.72L127.594 16.5588H127.504C127.324 16.8348 127.111 17.0748 126.865 17.2788C126.619 17.4828 126.301 17.6478 125.911 17.7738C125.521 17.8998 125.08 17.9628 124.588 17.9628C123.928 17.9628 123.355 17.8458 122.869 17.6118ZM126.595 15.8658C126.865 15.7158 127.084 15.4908 127.252 15.1908C127.42 14.8908 127.504 14.5368 127.504 14.1288V13.4448H126.46C125.992 13.4448 125.59 13.4898 125.254 13.5798C124.918 13.6698 124.66 13.8138 124.48 14.0118C124.3 14.2098 124.21 14.4768 124.21 14.8128C124.21 15.1008 124.273 15.3378 124.399 15.5238C124.525 15.7098 124.69 15.8508 124.894 15.9468C125.098 16.0428 125.344 16.0908 125.632 16.0908C126.004 16.0908 126.325 16.0158 126.595 15.8658Z" fill="#141414"/>
</g>
<defs>
<clipPath id="clip0_4354_14711">
<rect width="130.222" height="24" fill="white"/>
</clipPath>
</defs>
</svg>
